<?xml version="1.0" encoding="utf-8"?>
<svg width="131" height="83" viewBox="0 0 131 83" fill="none" xmlns="http://www.w3.org/2000/svg">
  <path d="M12.3075 45.8889V42.963C12.3075 41.8547 11.6204 41.1232 10.4677 41.1232C9.89141 41.1232 9.24859 41.3227 8.80526 41.9434C8.47277 41.4114 7.98511 41.1232 7.25362 41.1232C6.76597 41.1232 6.27831 41.2784 5.90148 41.8104V41.234H4.88184V45.8889H5.90148V43.3177C5.90148 42.4975 6.34481 42.0985 7.0098 42.0985C7.67478 42.0985 8.02944 42.5418 8.02944 43.3177V45.8889H9.04909V43.3177C9.04909 42.4975 9.53675 42.0985 10.1574 42.0985C10.8446 42.0985 11.1771 42.5418 11.1771 43.3177V45.8889H12.3075ZM27.4471 41.2119H25.7846V39.7932H24.765V41.2119H23.834V42.1429H24.765V44.293C24.765 45.357 25.2083 45.9998 26.3609 45.9998C26.8043 45.9998 27.2919 45.8446 27.6244 45.6673L27.3362 44.7806C27.0481 44.9801 26.6934 45.0245 26.4496 45.0245C25.9619 45.0245 25.7624 44.7363 25.7624 44.2486V42.165H27.4249V41.2119H27.4471ZM36.1141 41.1232C35.5378 41.1232 35.1388 41.4114 34.8949 41.8104V41.234H33.8753V45.8889H34.8949V43.2512C34.8949 42.4753 35.2274 42.032 35.8703 42.032C36.0697 42.032 36.3136 42.0764 36.5131 42.1207L36.8012 41.1454C36.6017 41.1232 36.3136 41.1232 36.1141 41.1232ZM23.0138 41.6109C22.5262 41.2784 21.839 41.1232 21.1075 41.1232C19.9327 41.1232 19.1569 41.6995 19.1569 42.6305C19.1569 43.4063 19.7332 43.8496 20.7529 43.9826L21.2405 44.027C21.7725 44.1156 22.0607 44.2708 22.0607 44.5146C22.0607 44.8471 21.6617 45.091 20.9967 45.091C20.3317 45.091 19.7776 44.8471 19.4451 44.6033L18.9574 45.3791C19.4894 45.7781 20.2209 45.9554 20.9524 45.9554C22.3045 45.9554 23.1025 45.3126 23.1025 44.4481C23.1025 43.628 22.4597 43.1847 21.5065 43.0295L21.0189 42.9852C20.5755 42.9408 20.243 42.83 20.243 42.5418C20.243 42.2093 20.5755 42.0099 21.1297 42.0099C21.706 42.0099 22.3045 42.2537 22.5927 42.4088L23.0138 41.6109ZM50.1675 41.1232C49.5912 41.1232 49.1922 41.4114 48.9483 41.8104V41.234H47.9287V45.8889H48.9483V43.2512C48.9483 42.4753 49.2808 42.032 49.9237 42.032C50.1231 42.032 50.367 42.0764 50.5665 42.1207L50.8546 41.1454C50.6551 41.1232 50.367 41.1232 50.1675 41.1232ZM37.1337 43.5615C37.1337 44.9801 38.109 45.9998 39.6163 45.9998C40.3035 45.9998 40.7912 45.8446 41.2788 45.4678L40.7912 44.6476C40.3922 44.9358 40.0153 45.091 39.572 45.091C38.7519 45.091 38.1534 44.5146 38.1534 43.5837C38.1534 42.697 38.7297 42.1207 39.572 42.0764C40.0153 42.0764 40.3922 42.2315 40.7912 42.5197L41.2788 41.6995C40.7912 41.3005 40.3035 41.1675 39.6163 41.1675C38.109 41.1232 37.1337 42.1428 37.1337 43.5615ZM46.5765 43.5615V41.234H45.5569V41.8104C45.2244 41.367 44.7367 41.1232 44.0939 41.1232C42.7861 41.1232 41.7665 42.1428 41.7665 43.5615C41.7665 44.9801 42.7861 45.9998 44.0939 45.9998C44.7811 45.9998 45.2687 45.7559 45.5569 45.3126V45.8889H46.5765V43.5615ZM42.8305 43.5615C42.8305 42.7413 43.3624 42.0542 44.2491 42.0542C45.0692 42.0542 45.6677 42.697 45.6677 43.5615C45.6677 44.3816 45.0914 45.0688 44.2491 45.0688C43.3624 45.0245 42.8305 44.3816 42.8305 43.5615ZM30.6169 41.1232C29.2647 41.1232 28.2894 42.0985 28.2894 43.5615C28.2894 45.0245 29.2647 45.9998 30.6833 45.9998C31.3705 45.9998 32.0355 45.8003 32.5896 45.357L32.102 44.6255C31.703 44.9136 31.2153 45.1131 30.7498 45.1131C30.107 45.1131 29.4864 44.825 29.3312 44.0048H32.7891V43.6058C32.8113 42.0985 31.9247 41.1232 30.6169 41.1232ZM30.6169 41.9877C31.2597 41.9877 31.6808 42.3867 31.7917 43.096H29.3534C29.442 42.4753 29.8854 41.9877 30.6169 41.9877ZM55.975 43.5615V39.3721H54.9554V41.8104C54.6229 41.367 54.1352 41.1232 53.4924 41.1232C52.1846 41.1232 51.165 42.1428 51.165 43.5615C51.165 44.9801 52.1846 45.9998 53.4924 45.9998C54.1796 45.9998 54.6672 45.7559 54.9554 45.3126V45.8889H55.975V43.5615ZM52.2068 43.5615C52.2068 42.7413 52.7388 42.0542 53.6254 42.0542C54.4456 42.0542 55.0441 42.697 55.0441 43.5615C55.0441 44.3816 54.4677 45.0688 53.6254 45.0688C52.7609 45.0245 52.2068 44.3816 52.2068 43.5615ZM18.0486 43.5615V41.234H17.0289V41.8104C16.6964 41.367 16.2088 41.1232 15.566 41.1232C14.2582 41.1232 13.2385 42.1428 13.2385 43.5615C13.2385 44.9801 14.2582 45.9998 15.566 45.9998C16.2531 45.9998 16.7408 45.7559 17.0289 45.3126V45.8889H18.0486V43.5615ZM14.2582 43.5615C14.2582 42.7413 14.7901 42.0542 15.6768 42.0542C16.4969 42.0542 17.0954 42.697 17.0954 43.5615C17.0954 44.3816 16.5191 45.0688 15.6768 45.0688C14.7901 45.0245 14.2582 44.3816 14.2582 43.5615Z" fill="white"/>
  <path d="M38.0202 5.74609H22.6812V33.2987H38.0202V5.74609Z" fill="#FF5F00"/>
  <path d="M23.6564 19.5113C23.6564 13.9254 26.2942 8.9602 30.3285 5.7461C27.3582 3.41864 23.6121 2 19.5113 2C9.82469 2 2 9.82469 2 19.5113C2 29.198 9.82469 37.0227 19.5113 37.0227C23.5899 37.0227 27.336 35.604 30.3063 33.2766C26.272 30.129 23.6564 25.1194 23.6564 19.5113Z" fill="#EB001B"/>
  <path d="M58.6789 19.5113C58.6789 29.198 50.8542 37.0227 41.1675 37.0227C37.0889 37.0227 33.3428 35.604 30.3726 33.2766C34.4511 30.0625 37.0446 25.0972 37.0446 19.5113C37.0446 13.9254 34.4068 8.9602 30.3726 5.7461C33.3428 3.41864 37.0889 2 41.1675 2C50.8542 2 58.6789 9.89118 58.6789 19.5113Z" fill="#F79E1B"/>
  <path d="M108.006 33.2892H92.6826V5.74219H108.006V33.2892Z" fill="#6C6BBD"/>
  <path d="M93.6568 19.5159C93.6568 13.9356 96.2698 8.9532 100.344 5.74233C97.3548 3.39507 93.6125 2 89.5159 2C79.839 2 72 9.83895 72 19.5159C72 29.1928 79.839 37.0317 89.5159 37.0317C93.6125 37.0317 97.3548 35.6366 100.344 33.2894C96.2698 30.0785 93.6568 25.1183 93.6568 19.5159Z" fill="#D32011"/>
  <path d="M128.688 19.5159C128.688 29.1928 120.85 37.0317 111.173 37.0317C107.076 37.0317 103.334 35.6366 100.344 33.2894C104.419 30.0785 107.032 25.0961 107.032 19.5159C107.032 13.9356 104.419 8.9532 100.344 5.74233C103.334 3.39507 107.076 2 111.173 2C120.85 2 128.688 9.83895 128.688 19.5159Z" fill="#0099DF"/>
  <path d="M113.188 41.0838C113.387 41.0838 113.675 41.1281 113.919 41.2167L113.609 42.1689C113.387 42.0803 113.188 42.0582 112.966 42.0582C112.302 42.0582 111.97 42.4789 111.97 43.2539V45.8448H110.974V41.1946H111.97V41.7703C112.236 41.3496 112.612 41.0838 113.188 41.0838ZM109.446 42.1246H107.785V44.2283C107.785 44.6933 107.94 45.0033 108.449 45.0033C108.715 45.0033 109.047 44.9147 109.335 44.7376L109.623 45.6012C109.313 45.8226 108.803 45.9555 108.361 45.9555C107.165 45.9555 106.744 45.3133 106.744 44.2283V42.1025H105.792V41.1946H106.744V39.7773H107.763V41.1946H109.423V42.1246H109.446ZM96.4914 43.1211C96.6021 42.4568 97.0007 41.9917 97.7314 41.9917C98.3736 41.9917 98.7943 42.3903 98.9051 43.1211H96.4914ZM99.968 43.5197C99.968 42.0803 99.0601 41.0838 97.7536 41.0838C96.3807 41.0838 95.4285 42.0803 95.4285 43.5197C95.4285 45.0033 96.4249 45.9555 97.82 45.9555C98.5286 45.9555 99.1708 45.7784 99.7244 45.3133L99.2372 44.5604C98.8386 44.8704 98.3515 45.0476 97.8864 45.0476C97.2443 45.0476 96.6464 44.7376 96.4914 43.9183H99.9458C99.968 43.7854 99.968 43.6525 99.968 43.5197ZM104.419 42.3903C104.131 42.2132 103.555 41.9917 102.98 41.9917C102.426 41.9917 102.094 42.191 102.094 42.5453C102.094 42.8554 102.448 42.9439 102.891 43.0104L103.378 43.0768C104.397 43.2318 104.995 43.6525 104.995 44.4719C104.995 45.3576 104.22 45.9998 102.869 45.9998C102.116 45.9998 101.407 45.8005 100.854 45.4019L101.341 44.6047C101.673 44.8704 102.182 45.0919 102.891 45.0919C103.577 45.0919 103.954 44.8926 103.954 44.5161C103.954 44.2504 103.688 44.1176 103.135 44.029L102.647 43.9625C101.607 43.8075 101.031 43.3425 101.031 42.5896C101.031 41.6596 101.784 41.106 102.957 41.106C103.688 41.106 104.375 41.261 104.862 41.5931L104.419 42.3903ZM116.886 42.036C116.687 42.036 116.487 42.0803 116.31 42.1467C116.133 42.2132 115.978 42.3239 115.845 42.4568C115.712 42.5896 115.602 42.7446 115.535 42.9218C115.469 43.0989 115.424 43.2982 115.424 43.5197C115.424 43.7411 115.469 43.9404 115.535 44.1176C115.602 44.2947 115.712 44.4497 115.845 44.5826C115.978 44.7154 116.133 44.8262 116.31 44.8926C116.487 44.959 116.687 45.0033 116.886 45.0033C117.085 45.0033 117.285 44.959 117.462 44.8926C117.639 44.8262 117.794 44.7154 117.927 44.5826C118.06 44.4497 118.17 44.2947 118.237 44.1176C118.303 43.9404 118.347 43.7411 118.347 43.5197C118.347 43.2982 118.303 43.0989 118.237 42.9218C118.17 42.7446 118.06 42.5896 117.927 42.4568C117.794 42.3239 117.639 42.2132 117.462 42.1467C117.307 42.0803 117.107 42.036 116.886 42.036ZM116.886 41.0838C117.24 41.0838 117.572 41.1503 117.882 41.2831C118.192 41.416 118.458 41.571 118.68 41.7924C118.901 42.0139 119.078 42.2796 119.211 42.5675C119.344 42.8775 119.41 43.1875 119.41 43.5418C119.41 43.8961 119.344 44.2283 119.211 44.5161C119.078 44.804 118.901 45.0697 118.68 45.2912C118.458 45.5126 118.192 45.6898 117.882 45.8005C117.572 45.9334 117.24 45.9776 116.886 45.9776C116.532 45.9776 116.199 45.9112 115.889 45.8005C115.579 45.6676 115.314 45.5126 115.092 45.2912C114.871 45.0697 114.694 44.804 114.561 44.5161C114.428 44.2061 114.362 43.8961 114.362 43.5418C114.362 43.1875 114.428 42.8553 114.561 42.5675C114.694 42.2796 114.871 42.0139 115.092 41.7924C115.314 41.571 115.579 41.3938 115.889 41.2831C116.199 41.1281 116.532 41.0838 116.886 41.0838ZM90.5789 43.5197C90.5789 42.7003 91.1104 42.036 91.9962 42.036C92.8376 42.036 93.3912 42.6782 93.3912 43.5197C93.3912 44.3611 92.8155 45.0033 91.9962 45.0033C91.1325 45.0033 90.5789 44.339 90.5789 43.5197ZM94.3656 43.5197V41.1946H93.3469V41.7703C93.0148 41.3496 92.5498 41.0838 91.8854 41.0838C90.5789 41.0838 89.5603 42.1025 89.5603 43.5197C89.5603 44.9369 90.5789 45.9555 91.8854 45.9555C92.5498 45.9555 93.0369 45.6898 93.3469 45.269V45.8448H94.3656V43.5197ZM88.6524 45.8448V42.9218C88.6524 41.8146 87.9438 41.0838 86.8145 41.0838C86.2166 41.0838 85.5966 41.261 85.1758 41.9032C84.8658 41.3938 84.3565 41.0838 83.6479 41.0838C83.1607 41.0838 82.6736 41.2388 82.275 41.7703V41.1946H81.2563V45.8448H82.275V43.2761C82.275 42.4789 82.7178 42.036 83.4043 42.036C84.0686 42.036 84.4229 42.4789 84.4229 43.2539V45.8448H85.4416V43.2761C85.4416 42.4789 85.9066 42.036 86.5709 42.036C87.2574 42.036 87.5895 42.4789 87.5895 43.2539V45.8448H88.6524Z" fill="white"/>
  <path fill-rule="evenodd" clip-rule="evenodd" d="M114.224 71.7764V79.9997H118.792V75.1266H123.97C126.149 75.1104 128 73.7184 128.698 71.7764H114.224Z" fill="#37A72E"/>
  <path fill-rule="evenodd" clip-rule="evenodd" d="M113.614 65C113.88 68.3613 117.06 71.0152 120.944 71.0152C120.957 71.0152 128.888 71.0152 128.888 71.0152C128.946 70.707 128.977 70.3888 128.977 70.0635C128.977 67.2791 126.731 65.0206 123.952 65.0001L113.614 65Z" fill="url(#paint0_linear)"/>
  <path fill-rule="evenodd" clip-rule="evenodd" d="M106.853 70.9352L106.856 70.9276L106.857 70.9277C106.904 70.8436 106.993 70.7868 107.096 70.7868C107.245 70.7868 107.366 70.9054 107.37 71.0533L107.37 71.0533V79.9239H111.939V65H107.37C106.791 65.0193 106.137 65.4444 105.893 65.9663L102.258 73.763C102.249 73.7949 102.235 73.8246 102.216 73.8513L102.215 73.8539L102.215 73.8538C102.16 73.9329 102.068 73.9848 101.964 73.9848C101.796 73.9848 101.66 73.8484 101.66 73.6802V65H97.0913V79.9239H101.66V79.9222C102.233 79.8922 102.872 79.4719 103.112 78.9576L106.843 70.9553C106.846 70.9485 106.849 70.9418 106.853 70.9352Z" fill="#37A72E"/>
  <path fill-rule="evenodd" clip-rule="evenodd" d="M89.7934 71.1903L87.1233 79.9239H83.8368L81.1651 71.185C81.1393 71.0451 81.0167 70.9391 80.8693 70.9391C80.7032 70.9391 80.5685 71.0737 80.5685 71.2398C80.5685 71.2411 80.5685 71.2424 80.5686 71.2437L80.5685 79.9239H76V65H79.9213H81.0892C81.9298 65 82.8107 65.6524 83.0564 66.4559L85.2797 73.7282C85.3904 74.0901 85.5698 74.0897 85.6803 73.7282L87.9037 66.4559C88.1496 65.6518 89.0302 65 89.8709 65H91.0384H94.9594V79.9239H90.3909V71.2437C90.3909 71.2424 90.3909 71.2411 90.3909 71.2398C90.3909 71.0737 90.2562 70.9391 90.0901 70.9391C89.9409 70.9391 89.817 71.0478 89.7934 71.1903Z" fill="#37A72E"/>
  <path d="M26.1016 80.7404H21.5962L24.4142 63.3159H28.9194L26.1016 80.7404Z" style="fill: rgb(255, 255, 255);"/>
  <path d="M42.434 63.7418C41.5453 63.3893 40.1358 63 38.393 63C33.9437 63 30.8106 65.3726 30.7914 68.7646C30.7544 71.2673 33.0346 72.6573 34.74 73.4918C36.4831 74.3445 37.0756 74.901 37.0756 75.6611C37.0579 76.8284 35.6671 77.3665 34.3699 77.3665C32.5712 77.3665 31.6074 77.0891 30.1427 76.4396L29.5494 76.1612L28.9189 80.0727C29.9756 80.5541 31.9225 80.9813 33.9437 81C38.6711 81 41.7488 78.6641 41.7853 75.0494C41.8033 73.0658 40.5992 71.5459 38.0034 70.304C36.4276 69.5067 35.4626 68.9691 35.4626 68.1534C35.4811 67.4118 36.2788 66.6522 38.0577 66.6522C39.5223 66.615 40.5985 66.9671 41.4137 67.3194L41.8212 67.5044L42.434 63.7418V63.7418Z" style="fill: rgb(255, 255, 255);"/>
  <path d="M48.4223 74.5675C48.7933 73.5665 50.2211 69.6923 50.2211 69.6923C50.2023 69.7295 50.5914 68.6728 50.8138 68.0241L51.1287 69.5255C51.1287 69.5255 51.9819 73.6963 52.1672 74.5675C51.463 74.5675 49.3122 74.5675 48.4223 74.5675ZM53.9837 63.3159H50.4987C49.424 63.3159 48.6076 63.6308 48.1439 64.7616L41.4517 80.7401H46.1791C46.1791 80.7401 46.9574 78.5896 47.1246 78.1264C47.6433 78.1264 52.242 78.1264 52.9092 78.1264C53.0386 78.7381 53.4468 80.7401 53.4468 80.7401H57.6184L53.9837 63.3159V63.3159Z" style="fill: rgb(255, 255, 255);"/>
  <path d="M17.833 63.3159L13.4207 75.1977L12.9385 72.788C12.1228 70.0074 9.56444 66.9864 6.70947 65.4842L10.751 80.7219H15.5153L22.5971 63.3159H17.833V63.3159Z" style="fill: rgb(255, 255, 255);"/>
  <path d="M9.32294 63.3159H2.07416L2 63.668C7.6545 65.1139 11.3994 68.5994 12.938 72.7887L11.3622 64.7806C11.1027 63.6677 10.3055 63.3526 9.32294 63.3159Z" style="fill: rgb(255, 255, 255);"/>
  <defs>
    <linearGradient id="paint0_linear" x1="113.614" y1="68.0076" x2="128.977" y2="68.0076" gradientUnits="userSpaceOnUse">
      <stop stop-color="#00A0E5" offset="0"/>
      <stop offset="1" stop-color="#0077C3"/>
    </linearGradient>
  </defs>
</svg>